<?xml version="1.0" standalone="no"?>
<!DOCTYPE svg PUBLIC "-//W3C//DTD SVG 20010904//EN"
 "http://www.w3.org/TR/2001/REC-SVG-20010904/DTD/svg10.dtd">
<svg version="1.0" xmlns="http://www.w3.org/2000/svg"
 width="300.000000pt" height="168.000000pt" viewBox="0 0 300.000000 168.000000"
 preserveAspectRatio="xMidYMid meet">

<g transform="translate(0.000000,168.000000) scale(0.100000,-0.100000)"
fill="#000000" stroke="none">
<path d="M558 1049 c-21 -12 -24 -59 -6 -77 15 -15 61 -15 76 0 19 19 15 66
-7 78 -24 12 -41 12 -63 -1z"/>
<path d="M222 980 c2 -39 0 -70 -4 -70 -3 0 -16 16 -28 36 -19 30 -27 35 -54
32 -27 -3 -31 -7 -34 -35 -3 -30 2 -35 79 -87 l82 -55 41 26 c103 65 126 84
126 106 0 56 -56 63 -91 12 -13 -19 -27 -35 -31 -35 -5 0 -8 32 -8 70 l0 70
-41 0 -41 0 4 -70z"/>
<path d="M1376 974 c-4 -16 -18 -30 -36 -37 -37 -14 -43 -61 -10 -70 18 -5 20
-14 20 -96 0 -79 3 -93 23 -116 19 -23 32 -27 77 -28 l55 -2 3 37 c3 35 2 37
-30 40 l-33 3 -3 83 -3 82 41 0 c39 0 40 1 40 35 0 34 -1 35 -40 35 -38 0 -40
2 -40 30 0 26 -3 30 -29 30 -23 0 -30 -5 -35 -26z"/>
<path d="M2758 961 c-14 -29 -18 -64 -18 -159 0 -112 2 -123 23 -148 18 -20
35 -28 74 -31 l51 -5 4 40 c3 39 2 41 -27 44 l-30 3 -3 83 -3 82 41 0 c39 0
40 1 40 35 0 34 -1 35 -40 35 -38 0 -40 2 -40 30 0 26 -4 30 -27 30 -23 0 -31
-8 -45 -39z"/>
<path d="M550 786 l0 -156 45 0 46 0 -3 153 -3 152 -42 3 -43 3 0 -155z"/>
<path d="M680 785 l0 -155 45 0 45 0 0 98 c0 115 12 142 64 142 51 0 56 -13
56 -132 l0 -108 45 0 45 0 0 126 c0 125 0 126 -29 155 -50 49 -123 38 -161
-24 l-20 -32 0 43 0 42 -45 0 -45 0 0 -155z"/>
<path d="M1070 918 c-41 -28 -54 -69 -35 -113 14 -36 32 -44 110 -54 45 -5 50
-8 50 -31 0 -22 -5 -25 -38 -28 -26 -2 -39 1 -43 12 -9 23 -94 23 -94 0 0 -30
54 -72 104 -79 92 -14 166 30 166 99 0 61 -51 96 -138 96 -36 0 -52 21 -32 45
16 19 54 19 70 0 14 -17 90 -21 90 -4 0 69 -137 106 -210 57z"/>
<path d="M1603 924 c-30 -15 -67 -70 -57 -86 3 -4 22 -8 42 -8 27 0 41 6 50
21 18 29 76 23 80 -8 3 -22 -2 -25 -101 -47 -38 -9 -77 -49 -77 -80 0 -81 82
-124 144 -75 34 27 35 52 1 43 -29 -7 -55 10 -55 36 0 13 14 23 46 34 l47 16
-6 -40 c-3 -24 -1 -40 5 -40 6 0 8 -13 6 -30 -4 -29 -4 -30 39 -30 l43 0 0
115 c0 64 -5 125 -11 139 -24 51 -129 73 -196 40z"/>
<path d="M1930 922 c-53 -26 -80 -74 -80 -141 0 -74 26 -116 87 -143 35 -16
58 -19 96 -15 59 7 91 27 117 70 29 48 26 57 -21 57 -32 0 -46 -6 -61 -25 -14
-18 -29 -25 -54 -25 -48 0 -74 29 -74 83 0 48 17 71 62 82 23 6 33 2 57 -24
23 -25 37 -31 70 -31 47 0 50 9 21 58 -42 68 -142 93 -220 54z"/>
<path d="M2264 926 c-25 -11 -64 -66 -64 -90 0 -3 19 -6 43 -6 31 0 45 5 55
20 20 33 82 21 82 -17 0 -11 -21 -19 -103 -37 -110 -25 -96 -176 16 -176 28 0
77 35 77 56 0 8 4 14 8 14 5 0 7 -13 4 -30 -4 -30 -4 -30 42 -30 l46 0 0 120
c0 117 -1 120 -29 152 -24 28 -35 32 -87 35 -36 2 -71 -2 -90 -11z m100 -227
c-20 -22 -44 -25 -62 -7 -24 24 -13 46 31 61 42 14 42 14 45 -10 2 -14 -4 -33
-14 -44z"/>
<path d="M2517 933 c-4 -3 -7 -73 -7 -155 l0 -148 45 0 45 0 0 88 c0 109 12
136 63 140 36 3 37 4 37 43 0 34 -3 39 -22 39 -34 0 -48 -13 -63 -56 l-14 -39
-1 48 0 47 -38 0 c-21 0 -42 -3 -45 -7z"/>
</g>
</svg>
